<mxfile host="app.diagrams.net" modified="2023-05-11T09:52:03.948Z" agent="5.0 (Windows NT 10.0; Win64; x64) AppleWebKit/537.36 (KHTML, like Gecko) Chrome/112.0.0.0 Safari/537.36" etag="6XHV4Tj9jfBtRW-7hEC6" version="21.0.6" type="github">
  <diagram name="第 1 页" id="GGxodU9b4LXdH2wf0JVg">
    <mxGraphModel dx="1050" dy="541" grid="1" gridSize="10" guides="1" tooltips="1" connect="1" arrows="1" fold="1" page="1" pageScale="1" pageWidth="3300" pageHeight="4681" math="0" shadow="0">
      <root>
        <mxCell id="0" />
        <mxCell id="1" parent="0" />
        <mxCell id="caTv67Q1xba_H8R_C0RS-77" style="edgeStyle=orthogonalEdgeStyle;rounded=0;orthogonalLoop=1;jettySize=auto;html=1;entryX=0;entryY=0.5;entryDx=0;entryDy=0;" edge="1" parent="1" source="caTv67Q1xba_H8R_C0RS-1" target="caTv67Q1xba_H8R_C0RS-74">
          <mxGeometry relative="1" as="geometry" />
        </mxCell>
        <mxCell id="caTv67Q1xba_H8R_C0RS-78" style="edgeStyle=orthogonalEdgeStyle;rounded=0;orthogonalLoop=1;jettySize=auto;html=1;entryX=1;entryY=0.5;entryDx=0;entryDy=0;" edge="1" parent="1" source="caTv67Q1xba_H8R_C0RS-1" target="caTv67Q1xba_H8R_C0RS-67">
          <mxGeometry relative="1" as="geometry" />
        </mxCell>
        <mxCell id="caTv67Q1xba_H8R_C0RS-79" style="edgeStyle=orthogonalEdgeStyle;rounded=0;orthogonalLoop=1;jettySize=auto;html=1;entryX=1;entryY=0.5;entryDx=0;entryDy=0;" edge="1" parent="1" source="caTv67Q1xba_H8R_C0RS-1" target="caTv67Q1xba_H8R_C0RS-68">
          <mxGeometry relative="1" as="geometry" />
        </mxCell>
        <mxCell id="caTv67Q1xba_H8R_C0RS-1" value="开票登记" style="rounded=1;whiteSpace=wrap;html=1;" vertex="1" parent="1">
          <mxGeometry x="390" y="590" width="120" height="60" as="geometry" />
        </mxCell>
        <mxCell id="caTv67Q1xba_H8R_C0RS-13" style="edgeStyle=orthogonalEdgeStyle;rounded=0;orthogonalLoop=1;jettySize=auto;html=1;entryX=0.5;entryY=1;entryDx=0;entryDy=0;" edge="1" parent="1" source="caTv67Q1xba_H8R_C0RS-2" target="caTv67Q1xba_H8R_C0RS-1">
          <mxGeometry relative="1" as="geometry" />
        </mxCell>
        <mxCell id="caTv67Q1xba_H8R_C0RS-2" value="开票申请" style="rounded=1;whiteSpace=wrap;html=1;" vertex="1" parent="1">
          <mxGeometry x="390" y="760" width="120" height="60" as="geometry" />
        </mxCell>
        <mxCell id="caTv67Q1xba_H8R_C0RS-9" style="edgeStyle=orthogonalEdgeStyle;rounded=0;orthogonalLoop=1;jettySize=auto;html=1;" edge="1" parent="1" source="caTv67Q1xba_H8R_C0RS-3" target="caTv67Q1xba_H8R_C0RS-1">
          <mxGeometry relative="1" as="geometry">
            <Array as="points">
              <mxPoint x="620" y="490" />
              <mxPoint x="450" y="490" />
            </Array>
          </mxGeometry>
        </mxCell>
        <mxCell id="caTv67Q1xba_H8R_C0RS-11" style="edgeStyle=orthogonalEdgeStyle;rounded=0;orthogonalLoop=1;jettySize=auto;html=1;" edge="1" parent="1" source="caTv67Q1xba_H8R_C0RS-3" target="caTv67Q1xba_H8R_C0RS-5">
          <mxGeometry relative="1" as="geometry">
            <Array as="points">
              <mxPoint x="620" y="490" />
              <mxPoint x="790" y="490" />
            </Array>
          </mxGeometry>
        </mxCell>
        <mxCell id="caTv67Q1xba_H8R_C0RS-3" value="业务处理" style="rounded=1;whiteSpace=wrap;html=1;" vertex="1" parent="1">
          <mxGeometry x="560" y="380" width="120" height="60" as="geometry" />
        </mxCell>
        <mxCell id="caTv67Q1xba_H8R_C0RS-102" style="edgeStyle=orthogonalEdgeStyle;rounded=0;orthogonalLoop=1;jettySize=auto;html=1;entryX=1;entryY=0.5;entryDx=0;entryDy=0;" edge="1" parent="1" source="caTv67Q1xba_H8R_C0RS-5" target="caTv67Q1xba_H8R_C0RS-74">
          <mxGeometry relative="1" as="geometry" />
        </mxCell>
        <mxCell id="caTv67Q1xba_H8R_C0RS-5" value="收票登记" style="rounded=1;whiteSpace=wrap;html=1;" vertex="1" parent="1">
          <mxGeometry x="730" y="590" width="120" height="60" as="geometry" />
        </mxCell>
        <mxCell id="caTv67Q1xba_H8R_C0RS-12" style="edgeStyle=orthogonalEdgeStyle;rounded=0;orthogonalLoop=1;jettySize=auto;html=1;entryX=0.5;entryY=1;entryDx=0;entryDy=0;" edge="1" parent="1" source="caTv67Q1xba_H8R_C0RS-6" target="caTv67Q1xba_H8R_C0RS-5">
          <mxGeometry relative="1" as="geometry" />
        </mxCell>
        <mxCell id="caTv67Q1xba_H8R_C0RS-6" value="收款处理" style="rounded=1;whiteSpace=wrap;html=1;" vertex="1" parent="1">
          <mxGeometry x="730" y="760" width="120" height="60" as="geometry" />
        </mxCell>
        <mxCell id="caTv67Q1xba_H8R_C0RS-8" style="edgeStyle=orthogonalEdgeStyle;rounded=0;orthogonalLoop=1;jettySize=auto;html=1;" edge="1" parent="1" source="caTv67Q1xba_H8R_C0RS-7" target="caTv67Q1xba_H8R_C0RS-3">
          <mxGeometry relative="1" as="geometry" />
        </mxCell>
        <mxCell id="caTv67Q1xba_H8R_C0RS-7" value="质押申请" style="rounded=1;whiteSpace=wrap;html=1;" vertex="1" parent="1">
          <mxGeometry x="290" y="380" width="120" height="60" as="geometry" />
        </mxCell>
        <mxCell id="caTv67Q1xba_H8R_C0RS-14" value="生成" style="text;html=1;strokeColor=none;fillColor=none;align=center;verticalAlign=middle;whiteSpace=wrap;rounded=0;" vertex="1" parent="1">
          <mxGeometry x="460" y="380" width="60" height="30" as="geometry" />
        </mxCell>
        <mxCell id="caTv67Q1xba_H8R_C0RS-15" value="生成" style="text;html=1;strokeColor=none;fillColor=none;align=center;verticalAlign=middle;whiteSpace=wrap;rounded=0;" vertex="1" parent="1">
          <mxGeometry x="490" y="490" width="60" height="30" as="geometry" />
        </mxCell>
        <mxCell id="caTv67Q1xba_H8R_C0RS-16" value="生成" style="text;html=1;strokeColor=none;fillColor=none;align=center;verticalAlign=middle;whiteSpace=wrap;rounded=0;" vertex="1" parent="1">
          <mxGeometry x="680" y="490" width="60" height="30" as="geometry" />
        </mxCell>
        <mxCell id="caTv67Q1xba_H8R_C0RS-17" value="生成" style="text;html=1;strokeColor=none;fillColor=none;align=center;verticalAlign=middle;whiteSpace=wrap;rounded=0;" vertex="1" parent="1">
          <mxGeometry x="440" y="690" width="60" height="30" as="geometry" />
        </mxCell>
        <mxCell id="caTv67Q1xba_H8R_C0RS-18" value="生成" style="text;html=1;strokeColor=none;fillColor=none;align=center;verticalAlign=middle;whiteSpace=wrap;rounded=0;" vertex="1" parent="1">
          <mxGeometry x="730" y="690" width="60" height="30" as="geometry" />
        </mxCell>
        <mxCell id="caTv67Q1xba_H8R_C0RS-19" value="申请组织" style="rounded=1;whiteSpace=wrap;html=1;" vertex="1" parent="1">
          <mxGeometry x="110" y="340" width="80" height="40" as="geometry" />
        </mxCell>
        <mxCell id="caTv67Q1xba_H8R_C0RS-23" style="edgeStyle=orthogonalEdgeStyle;rounded=0;orthogonalLoop=1;jettySize=auto;html=1;" edge="1" parent="1" source="caTv67Q1xba_H8R_C0RS-22" target="caTv67Q1xba_H8R_C0RS-3">
          <mxGeometry relative="1" as="geometry" />
        </mxCell>
        <mxCell id="caTv67Q1xba_H8R_C0RS-22" value="贴现申请" style="rounded=1;whiteSpace=wrap;html=1;" vertex="1" parent="1">
          <mxGeometry x="290" y="290" width="120" height="60" as="geometry" />
        </mxCell>
        <mxCell id="caTv67Q1xba_H8R_C0RS-28" value="生成" style="text;html=1;strokeColor=none;fillColor=none;align=center;verticalAlign=middle;whiteSpace=wrap;rounded=0;" vertex="1" parent="1">
          <mxGeometry x="460" y="290" width="60" height="30" as="geometry" />
        </mxCell>
        <mxCell id="caTv67Q1xba_H8R_C0RS-33" value="币别" style="rounded=1;whiteSpace=wrap;html=1;" vertex="1" parent="1">
          <mxGeometry x="110" y="400" width="80" height="40" as="geometry" />
        </mxCell>
        <mxCell id="caTv67Q1xba_H8R_C0RS-34" value="票据类型" style="rounded=1;whiteSpace=wrap;html=1;" vertex="1" parent="1">
          <mxGeometry x="110" y="280" width="80" height="40" as="geometry" />
        </mxCell>
        <mxCell id="caTv67Q1xba_H8R_C0RS-35" value="询价信息" style="rounded=1;whiteSpace=wrap;html=1;" vertex="1" parent="1">
          <mxGeometry x="310" y="180" width="80" height="40" as="geometry" />
        </mxCell>
        <mxCell id="caTv67Q1xba_H8R_C0RS-36" value="质权人" style="rounded=1;whiteSpace=wrap;html=1;" vertex="1" parent="1">
          <mxGeometry x="180" y="490" width="80" height="40" as="geometry" />
        </mxCell>
        <mxCell id="caTv67Q1xba_H8R_C0RS-37" value="质权人类型" style="rounded=1;whiteSpace=wrap;html=1;" vertex="1" parent="1">
          <mxGeometry x="310" y="490" width="80" height="40" as="geometry" />
        </mxCell>
        <mxCell id="caTv67Q1xba_H8R_C0RS-39" value="" style="endArrow=classic;html=1;rounded=0;exitX=0.5;exitY=0;exitDx=0;exitDy=0;entryX=0.5;entryY=1;entryDx=0;entryDy=0;" edge="1" parent="1" source="caTv67Q1xba_H8R_C0RS-22" target="caTv67Q1xba_H8R_C0RS-35">
          <mxGeometry width="50" height="50" relative="1" as="geometry">
            <mxPoint x="290" y="310" as="sourcePoint" />
            <mxPoint x="230" y="230" as="targetPoint" />
          </mxGeometry>
        </mxCell>
        <mxCell id="caTv67Q1xba_H8R_C0RS-42" value="" style="endArrow=classic;html=1;rounded=0;entryX=1;entryY=0.5;entryDx=0;entryDy=0;exitX=0;exitY=0.5;exitDx=0;exitDy=0;" edge="1" parent="1" source="caTv67Q1xba_H8R_C0RS-22" target="caTv67Q1xba_H8R_C0RS-34">
          <mxGeometry width="50" height="50" relative="1" as="geometry">
            <mxPoint x="400" y="480" as="sourcePoint" />
            <mxPoint x="540" y="400" as="targetPoint" />
          </mxGeometry>
        </mxCell>
        <mxCell id="caTv67Q1xba_H8R_C0RS-44" value="" style="endArrow=classic;html=1;rounded=0;exitX=0;exitY=0.75;exitDx=0;exitDy=0;" edge="1" parent="1" source="caTv67Q1xba_H8R_C0RS-22">
          <mxGeometry width="50" height="50" relative="1" as="geometry">
            <mxPoint x="300" y="330" as="sourcePoint" />
            <mxPoint x="190" y="360" as="targetPoint" />
          </mxGeometry>
        </mxCell>
        <mxCell id="caTv67Q1xba_H8R_C0RS-45" value="" style="endArrow=classic;html=1;rounded=0;exitX=0;exitY=1;exitDx=0;exitDy=0;entryX=1;entryY=0.5;entryDx=0;entryDy=0;" edge="1" parent="1" source="caTv67Q1xba_H8R_C0RS-22" target="caTv67Q1xba_H8R_C0RS-33">
          <mxGeometry width="50" height="50" relative="1" as="geometry">
            <mxPoint x="300" y="345" as="sourcePoint" />
            <mxPoint x="200" y="370" as="targetPoint" />
          </mxGeometry>
        </mxCell>
        <mxCell id="caTv67Q1xba_H8R_C0RS-46" value="" style="endArrow=classic;html=1;rounded=0;exitX=0;exitY=0.25;exitDx=0;exitDy=0;entryX=1;entryY=0.75;entryDx=0;entryDy=0;" edge="1" parent="1" source="caTv67Q1xba_H8R_C0RS-7" target="caTv67Q1xba_H8R_C0RS-34">
          <mxGeometry width="50" height="50" relative="1" as="geometry">
            <mxPoint x="300" y="360" as="sourcePoint" />
            <mxPoint x="200" y="430" as="targetPoint" />
          </mxGeometry>
        </mxCell>
        <mxCell id="caTv67Q1xba_H8R_C0RS-47" value="" style="endArrow=classic;html=1;rounded=0;exitX=0;exitY=0.5;exitDx=0;exitDy=0;entryX=1;entryY=0.75;entryDx=0;entryDy=0;" edge="1" parent="1" source="caTv67Q1xba_H8R_C0RS-7" target="caTv67Q1xba_H8R_C0RS-19">
          <mxGeometry width="50" height="50" relative="1" as="geometry">
            <mxPoint x="300" y="405" as="sourcePoint" />
            <mxPoint x="200" y="320" as="targetPoint" />
          </mxGeometry>
        </mxCell>
        <mxCell id="caTv67Q1xba_H8R_C0RS-48" value="" style="endArrow=classic;html=1;rounded=0;exitX=0;exitY=0.75;exitDx=0;exitDy=0;entryX=1;entryY=0.75;entryDx=0;entryDy=0;" edge="1" parent="1" source="caTv67Q1xba_H8R_C0RS-7" target="caTv67Q1xba_H8R_C0RS-33">
          <mxGeometry width="50" height="50" relative="1" as="geometry">
            <mxPoint x="300" y="420" as="sourcePoint" />
            <mxPoint x="200" y="380" as="targetPoint" />
          </mxGeometry>
        </mxCell>
        <mxCell id="caTv67Q1xba_H8R_C0RS-49" value="" style="endArrow=classic;html=1;rounded=0;exitX=0.25;exitY=1;exitDx=0;exitDy=0;entryX=0.5;entryY=0;entryDx=0;entryDy=0;" edge="1" parent="1" source="caTv67Q1xba_H8R_C0RS-7" target="caTv67Q1xba_H8R_C0RS-36">
          <mxGeometry width="50" height="50" relative="1" as="geometry">
            <mxPoint x="300" y="435" as="sourcePoint" />
            <mxPoint x="200" y="440" as="targetPoint" />
          </mxGeometry>
        </mxCell>
        <mxCell id="caTv67Q1xba_H8R_C0RS-50" value="" style="endArrow=classic;html=1;rounded=0;exitX=0.5;exitY=1;exitDx=0;exitDy=0;" edge="1" parent="1" source="caTv67Q1xba_H8R_C0RS-7" target="caTv67Q1xba_H8R_C0RS-37">
          <mxGeometry width="50" height="50" relative="1" as="geometry">
            <mxPoint x="330" y="450" as="sourcePoint" />
            <mxPoint x="230" y="500" as="targetPoint" />
          </mxGeometry>
        </mxCell>
        <mxCell id="caTv67Q1xba_H8R_C0RS-51" value="拥有" style="text;html=1;strokeColor=none;fillColor=none;align=center;verticalAlign=middle;whiteSpace=wrap;rounded=0;" vertex="1" parent="1">
          <mxGeometry x="210" y="290" width="60" height="30" as="geometry" />
        </mxCell>
        <mxCell id="caTv67Q1xba_H8R_C0RS-52" value="拥有" style="text;html=1;strokeColor=none;fillColor=none;align=center;verticalAlign=middle;whiteSpace=wrap;rounded=0;" vertex="1" parent="1">
          <mxGeometry x="210" y="320" width="60" height="30" as="geometry" />
        </mxCell>
        <mxCell id="caTv67Q1xba_H8R_C0RS-53" value="拥有" style="text;html=1;strokeColor=none;fillColor=none;align=center;verticalAlign=middle;whiteSpace=wrap;rounded=0;" vertex="1" parent="1">
          <mxGeometry x="220" y="420" width="60" height="30" as="geometry" />
        </mxCell>
        <mxCell id="caTv67Q1xba_H8R_C0RS-54" value="拥有" style="text;html=1;strokeColor=none;fillColor=none;align=center;verticalAlign=middle;whiteSpace=wrap;rounded=0;" vertex="1" parent="1">
          <mxGeometry x="220" y="395" width="60" height="30" as="geometry" />
        </mxCell>
        <mxCell id="caTv67Q1xba_H8R_C0RS-55" value="拥有" style="text;html=1;strokeColor=none;fillColor=none;align=center;verticalAlign=middle;whiteSpace=wrap;rounded=0;" vertex="1" parent="1">
          <mxGeometry x="240" y="370" width="60" height="30" as="geometry" />
        </mxCell>
        <mxCell id="caTv67Q1xba_H8R_C0RS-56" value="拥有" style="text;html=1;strokeColor=none;fillColor=none;align=center;verticalAlign=middle;whiteSpace=wrap;rounded=0;" vertex="1" parent="1">
          <mxGeometry x="240" y="340" width="60" height="30" as="geometry" />
        </mxCell>
        <mxCell id="caTv67Q1xba_H8R_C0RS-57" value="包含" style="text;html=1;strokeColor=none;fillColor=none;align=center;verticalAlign=middle;whiteSpace=wrap;rounded=0;" vertex="1" parent="1">
          <mxGeometry x="340" y="240" width="60" height="30" as="geometry" />
        </mxCell>
        <mxCell id="caTv67Q1xba_H8R_C0RS-58" value="包含" style="text;html=1;strokeColor=none;fillColor=none;align=center;verticalAlign=middle;whiteSpace=wrap;rounded=0;" vertex="1" parent="1">
          <mxGeometry x="250" y="460" width="60" height="30" as="geometry" />
        </mxCell>
        <mxCell id="caTv67Q1xba_H8R_C0RS-59" value="包含" style="text;html=1;strokeColor=none;fillColor=none;align=center;verticalAlign=middle;whiteSpace=wrap;rounded=0;" vertex="1" parent="1">
          <mxGeometry x="340" y="450" width="60" height="30" as="geometry" />
        </mxCell>
        <mxCell id="caTv67Q1xba_H8R_C0RS-60" value="被背书人" style="rounded=1;whiteSpace=wrap;html=1;" vertex="1" parent="1">
          <mxGeometry x="720" y="190" width="80" height="40" as="geometry" />
        </mxCell>
        <mxCell id="caTv67Q1xba_H8R_C0RS-61" value="资金组织" style="rounded=1;whiteSpace=wrap;html=1;" vertex="1" parent="1">
          <mxGeometry x="610" y="190" width="80" height="40" as="geometry" />
        </mxCell>
        <mxCell id="caTv67Q1xba_H8R_C0RS-62" value="保证金账户" style="rounded=1;whiteSpace=wrap;html=1;" vertex="1" parent="1">
          <mxGeometry x="840" y="362.5" width="80" height="40" as="geometry" />
        </mxCell>
        <mxCell id="caTv67Q1xba_H8R_C0RS-63" value="受理机构" style="rounded=1;whiteSpace=wrap;html=1;" vertex="1" parent="1">
          <mxGeometry x="840" y="220" width="80" height="40" as="geometry" />
        </mxCell>
        <mxCell id="caTv67Q1xba_H8R_C0RS-64" value="授信类别" style="rounded=1;whiteSpace=wrap;html=1;" vertex="1" parent="1">
          <mxGeometry x="840" y="297.5" width="80" height="40" as="geometry" />
        </mxCell>
        <mxCell id="caTv67Q1xba_H8R_C0RS-65" value="交科项目" style="rounded=1;whiteSpace=wrap;html=1;" vertex="1" parent="1">
          <mxGeometry x="840" y="432.5" width="80" height="40" as="geometry" />
        </mxCell>
        <mxCell id="caTv67Q1xba_H8R_C0RS-67" value="担保" style="rounded=1;whiteSpace=wrap;html=1;" vertex="1" parent="1">
          <mxGeometry x="200" y="560" width="80" height="40" as="geometry" />
        </mxCell>
        <mxCell id="caTv67Q1xba_H8R_C0RS-68" value="保证金" style="rounded=1;whiteSpace=wrap;html=1;" vertex="1" parent="1">
          <mxGeometry x="200" y="640" width="80" height="40" as="geometry" />
        </mxCell>
        <mxCell id="caTv67Q1xba_H8R_C0RS-69" value="承兑人" style="rounded=1;whiteSpace=wrap;html=1;" vertex="1" parent="1">
          <mxGeometry x="570" y="850" width="80" height="40" as="geometry" />
        </mxCell>
        <mxCell id="caTv67Q1xba_H8R_C0RS-70" value="出票人" style="rounded=1;whiteSpace=wrap;html=1;" vertex="1" parent="1">
          <mxGeometry x="570" y="790" width="80" height="40" as="geometry" />
        </mxCell>
        <mxCell id="caTv67Q1xba_H8R_C0RS-71" style="edgeStyle=orthogonalEdgeStyle;rounded=0;orthogonalLoop=1;jettySize=auto;html=1;exitX=0.5;exitY=1;exitDx=0;exitDy=0;" edge="1" parent="1" source="caTv67Q1xba_H8R_C0RS-70" target="caTv67Q1xba_H8R_C0RS-70">
          <mxGeometry relative="1" as="geometry" />
        </mxCell>
        <mxCell id="caTv67Q1xba_H8R_C0RS-73" value="收款人" style="rounded=1;whiteSpace=wrap;html=1;" vertex="1" parent="1">
          <mxGeometry x="570" y="730" width="80" height="40" as="geometry" />
        </mxCell>
        <mxCell id="caTv67Q1xba_H8R_C0RS-74" value="子票包" style="rounded=1;whiteSpace=wrap;html=1;" vertex="1" parent="1">
          <mxGeometry x="570" y="600" width="80" height="40" as="geometry" />
        </mxCell>
        <mxCell id="caTv67Q1xba_H8R_C0RS-75" value="拆分票据" style="rounded=1;whiteSpace=wrap;html=1;" vertex="1" parent="1">
          <mxGeometry x="200" y="742.5" width="80" height="40" as="geometry" />
        </mxCell>
        <mxCell id="caTv67Q1xba_H8R_C0RS-76" value="已选票据" style="rounded=1;whiteSpace=wrap;html=1;" vertex="1" parent="1">
          <mxGeometry x="200" y="840" width="80" height="40" as="geometry" />
        </mxCell>
        <mxCell id="caTv67Q1xba_H8R_C0RS-80" value="" style="endArrow=classic;html=1;rounded=0;entryX=1;entryY=0.5;entryDx=0;entryDy=0;exitX=0;exitY=0.25;exitDx=0;exitDy=0;" edge="1" parent="1" source="caTv67Q1xba_H8R_C0RS-2" target="caTv67Q1xba_H8R_C0RS-75">
          <mxGeometry width="50" height="50" relative="1" as="geometry">
            <mxPoint x="490" y="650" as="sourcePoint" />
            <mxPoint x="540" y="600" as="targetPoint" />
          </mxGeometry>
        </mxCell>
        <mxCell id="caTv67Q1xba_H8R_C0RS-81" value="" style="endArrow=classic;html=1;rounded=0;entryX=1;entryY=0.5;entryDx=0;entryDy=0;exitX=0;exitY=0.75;exitDx=0;exitDy=0;" edge="1" parent="1" source="caTv67Q1xba_H8R_C0RS-2" target="caTv67Q1xba_H8R_C0RS-76">
          <mxGeometry width="50" height="50" relative="1" as="geometry">
            <mxPoint x="400" y="785" as="sourcePoint" />
            <mxPoint x="350" y="780" as="targetPoint" />
          </mxGeometry>
        </mxCell>
        <mxCell id="caTv67Q1xba_H8R_C0RS-82" value="" style="endArrow=classic;html=1;rounded=0;entryX=0;entryY=0.5;entryDx=0;entryDy=0;exitX=1;exitY=0.75;exitDx=0;exitDy=0;" edge="1" parent="1" source="caTv67Q1xba_H8R_C0RS-2" target="caTv67Q1xba_H8R_C0RS-69">
          <mxGeometry width="50" height="50" relative="1" as="geometry">
            <mxPoint x="400" y="815" as="sourcePoint" />
            <mxPoint x="350" y="850" as="targetPoint" />
          </mxGeometry>
        </mxCell>
        <mxCell id="caTv67Q1xba_H8R_C0RS-83" value="" style="endArrow=classic;html=1;rounded=0;entryX=0;entryY=0.5;entryDx=0;entryDy=0;exitX=1;exitY=0.5;exitDx=0;exitDy=0;" edge="1" parent="1" source="caTv67Q1xba_H8R_C0RS-2" target="caTv67Q1xba_H8R_C0RS-70">
          <mxGeometry width="50" height="50" relative="1" as="geometry">
            <mxPoint x="520" y="815" as="sourcePoint" />
            <mxPoint x="580" y="860" as="targetPoint" />
          </mxGeometry>
        </mxCell>
        <mxCell id="caTv67Q1xba_H8R_C0RS-84" value="" style="endArrow=classic;html=1;rounded=0;entryX=0;entryY=0.5;entryDx=0;entryDy=0;exitX=1;exitY=0.25;exitDx=0;exitDy=0;" edge="1" parent="1" source="caTv67Q1xba_H8R_C0RS-2" target="caTv67Q1xba_H8R_C0RS-73">
          <mxGeometry width="50" height="50" relative="1" as="geometry">
            <mxPoint x="520" y="800" as="sourcePoint" />
            <mxPoint x="580" y="800" as="targetPoint" />
          </mxGeometry>
        </mxCell>
        <mxCell id="caTv67Q1xba_H8R_C0RS-85" value="" style="endArrow=classic;html=1;rounded=0;entryX=0.5;entryY=1;entryDx=0;entryDy=0;" edge="1" parent="1" source="caTv67Q1xba_H8R_C0RS-3" target="caTv67Q1xba_H8R_C0RS-61">
          <mxGeometry width="50" height="50" relative="1" as="geometry">
            <mxPoint x="490" y="450" as="sourcePoint" />
            <mxPoint x="540" y="400" as="targetPoint" />
          </mxGeometry>
        </mxCell>
        <mxCell id="caTv67Q1xba_H8R_C0RS-88" value="" style="endArrow=classic;html=1;rounded=0;entryX=0.5;entryY=1;entryDx=0;entryDy=0;" edge="1" parent="1" target="caTv67Q1xba_H8R_C0RS-60">
          <mxGeometry width="50" height="50" relative="1" as="geometry">
            <mxPoint x="680" y="390" as="sourcePoint" />
            <mxPoint x="660" y="240" as="targetPoint" />
          </mxGeometry>
        </mxCell>
        <mxCell id="caTv67Q1xba_H8R_C0RS-89" value="" style="endArrow=classic;html=1;rounded=0;exitX=1;exitY=0.5;exitDx=0;exitDy=0;entryX=0;entryY=0.5;entryDx=0;entryDy=0;" edge="1" parent="1" source="caTv67Q1xba_H8R_C0RS-3" target="caTv67Q1xba_H8R_C0RS-63">
          <mxGeometry width="50" height="50" relative="1" as="geometry">
            <mxPoint x="690" y="390" as="sourcePoint" />
            <mxPoint x="770" y="300" as="targetPoint" />
          </mxGeometry>
        </mxCell>
        <mxCell id="caTv67Q1xba_H8R_C0RS-90" value="" style="endArrow=classic;html=1;rounded=0;entryX=0;entryY=0.5;entryDx=0;entryDy=0;" edge="1" parent="1" target="caTv67Q1xba_H8R_C0RS-64">
          <mxGeometry width="50" height="50" relative="1" as="geometry">
            <mxPoint x="680" y="420" as="sourcePoint" />
            <mxPoint x="850" y="250" as="targetPoint" />
          </mxGeometry>
        </mxCell>
        <mxCell id="caTv67Q1xba_H8R_C0RS-91" value="" style="endArrow=classic;html=1;rounded=0;exitX=1;exitY=0.75;exitDx=0;exitDy=0;entryX=0;entryY=0.5;entryDx=0;entryDy=0;" edge="1" parent="1" source="caTv67Q1xba_H8R_C0RS-3" target="caTv67Q1xba_H8R_C0RS-62">
          <mxGeometry width="50" height="50" relative="1" as="geometry">
            <mxPoint x="690" y="435" as="sourcePoint" />
            <mxPoint x="850" y="328" as="targetPoint" />
          </mxGeometry>
        </mxCell>
        <mxCell id="caTv67Q1xba_H8R_C0RS-92" value="" style="endArrow=classic;html=1;rounded=0;exitX=1;exitY=1;exitDx=0;exitDy=0;entryX=0;entryY=0.5;entryDx=0;entryDy=0;" edge="1" parent="1" source="caTv67Q1xba_H8R_C0RS-3" target="caTv67Q1xba_H8R_C0RS-65">
          <mxGeometry width="50" height="50" relative="1" as="geometry">
            <mxPoint x="690" y="435" as="sourcePoint" />
            <mxPoint x="850" y="393" as="targetPoint" />
          </mxGeometry>
        </mxCell>
        <mxCell id="caTv67Q1xba_H8R_C0RS-106" style="edgeStyle=orthogonalEdgeStyle;rounded=0;orthogonalLoop=1;jettySize=auto;html=1;entryX=0.5;entryY=0;entryDx=0;entryDy=0;" edge="1" parent="1" source="caTv67Q1xba_H8R_C0RS-93" target="caTv67Q1xba_H8R_C0RS-61">
          <mxGeometry relative="1" as="geometry">
            <Array as="points">
              <mxPoint x="1020" y="530" />
              <mxPoint x="1020" y="170" />
              <mxPoint x="650" y="170" />
            </Array>
          </mxGeometry>
        </mxCell>
        <mxCell id="caTv67Q1xba_H8R_C0RS-93" value="资金组织" style="rounded=1;whiteSpace=wrap;html=1;" vertex="1" parent="1">
          <mxGeometry x="840" y="510" width="80" height="40" as="geometry" />
        </mxCell>
        <mxCell id="caTv67Q1xba_H8R_C0RS-94" value="交票人" style="rounded=1;whiteSpace=wrap;html=1;" vertex="1" parent="1">
          <mxGeometry x="950" y="647.5" width="80" height="40" as="geometry" />
        </mxCell>
        <mxCell id="caTv67Q1xba_H8R_C0RS-95" value="银行账号" style="rounded=1;whiteSpace=wrap;html=1;" vertex="1" parent="1">
          <mxGeometry x="950" y="577.5" width="80" height="40" as="geometry" />
        </mxCell>
        <mxCell id="caTv67Q1xba_H8R_C0RS-97" value="承兑人" style="rounded=1;whiteSpace=wrap;html=1;" vertex="1" parent="1">
          <mxGeometry x="950" y="782.5" width="80" height="40" as="geometry" />
        </mxCell>
        <mxCell id="caTv67Q1xba_H8R_C0RS-98" value="收款人" style="rounded=1;whiteSpace=wrap;html=1;" vertex="1" parent="1">
          <mxGeometry x="950" y="712.5" width="80" height="40" as="geometry" />
        </mxCell>
        <mxCell id="caTv67Q1xba_H8R_C0RS-101" value="背面信息" style="rounded=1;whiteSpace=wrap;html=1;" vertex="1" parent="1">
          <mxGeometry x="570" y="530" width="80" height="40" as="geometry" />
        </mxCell>
        <mxCell id="caTv67Q1xba_H8R_C0RS-103" value="拥有" style="text;html=1;strokeColor=none;fillColor=none;align=center;verticalAlign=middle;whiteSpace=wrap;rounded=0;" vertex="1" parent="1">
          <mxGeometry x="510" y="590" width="60" height="30" as="geometry" />
        </mxCell>
        <mxCell id="caTv67Q1xba_H8R_C0RS-104" value="拥有" style="text;html=1;strokeColor=none;fillColor=none;align=center;verticalAlign=middle;whiteSpace=wrap;rounded=0;" vertex="1" parent="1">
          <mxGeometry x="670" y="590" width="60" height="30" as="geometry" />
        </mxCell>
        <mxCell id="caTv67Q1xba_H8R_C0RS-107" value="" style="endArrow=classic;html=1;rounded=0;entryX=0;entryY=0.5;entryDx=0;entryDy=0;exitX=1;exitY=0.25;exitDx=0;exitDy=0;" edge="1" parent="1" source="caTv67Q1xba_H8R_C0RS-5" target="caTv67Q1xba_H8R_C0RS-95">
          <mxGeometry width="50" height="50" relative="1" as="geometry">
            <mxPoint x="850" y="605" as="sourcePoint" />
            <mxPoint x="900" y="555" as="targetPoint" />
          </mxGeometry>
        </mxCell>
        <mxCell id="caTv67Q1xba_H8R_C0RS-108" value="" style="endArrow=classic;html=1;rounded=0;entryX=0;entryY=0.5;entryDx=0;entryDy=0;exitX=1;exitY=0.5;exitDx=0;exitDy=0;" edge="1" parent="1" source="caTv67Q1xba_H8R_C0RS-5" target="caTv67Q1xba_H8R_C0RS-94">
          <mxGeometry width="50" height="50" relative="1" as="geometry">
            <mxPoint x="860" y="615" as="sourcePoint" />
            <mxPoint x="960" y="608" as="targetPoint" />
          </mxGeometry>
        </mxCell>
        <mxCell id="caTv67Q1xba_H8R_C0RS-109" value="" style="endArrow=classic;html=1;rounded=0;entryX=0;entryY=0;entryDx=0;entryDy=0;exitX=1;exitY=0.75;exitDx=0;exitDy=0;" edge="1" parent="1" source="caTv67Q1xba_H8R_C0RS-5" target="caTv67Q1xba_H8R_C0RS-98">
          <mxGeometry width="50" height="50" relative="1" as="geometry">
            <mxPoint x="860" y="630" as="sourcePoint" />
            <mxPoint x="960" y="678" as="targetPoint" />
          </mxGeometry>
        </mxCell>
        <mxCell id="caTv67Q1xba_H8R_C0RS-110" value="" style="endArrow=classic;html=1;rounded=0;entryX=0;entryY=0.25;entryDx=0;entryDy=0;" edge="1" parent="1" target="caTv67Q1xba_H8R_C0RS-97">
          <mxGeometry width="50" height="50" relative="1" as="geometry">
            <mxPoint x="840" y="650" as="sourcePoint" />
            <mxPoint x="960" y="723" as="targetPoint" />
          </mxGeometry>
        </mxCell>
        <mxCell id="caTv67Q1xba_H8R_C0RS-111" value="" style="endArrow=classic;html=1;rounded=0;entryX=1;entryY=0.5;entryDx=0;entryDy=0;" edge="1" parent="1" target="caTv67Q1xba_H8R_C0RS-101">
          <mxGeometry width="50" height="50" relative="1" as="geometry">
            <mxPoint x="750" y="590" as="sourcePoint" />
            <mxPoint x="960" y="678" as="targetPoint" />
          </mxGeometry>
        </mxCell>
        <mxCell id="caTv67Q1xba_H8R_C0RS-112" value="对应" style="text;html=1;strokeColor=none;fillColor=none;align=center;verticalAlign=middle;whiteSpace=wrap;rounded=0;" vertex="1" parent="1">
          <mxGeometry x="970" y="195" width="60" height="30" as="geometry" />
        </mxCell>
        <mxCell id="caTv67Q1xba_H8R_C0RS-113" value="包含" style="text;html=1;strokeColor=none;fillColor=none;align=center;verticalAlign=middle;whiteSpace=wrap;rounded=0;" vertex="1" parent="1">
          <mxGeometry x="740" y="405" width="60" height="30" as="geometry" />
        </mxCell>
        <mxCell id="caTv67Q1xba_H8R_C0RS-114" value="包含" style="text;html=1;strokeColor=none;fillColor=none;align=center;verticalAlign=middle;whiteSpace=wrap;rounded=0;" vertex="1" parent="1">
          <mxGeometry x="620" y="290" width="60" height="30" as="geometry" />
        </mxCell>
        <mxCell id="caTv67Q1xba_H8R_C0RS-115" value="包含" style="text;html=1;strokeColor=none;fillColor=none;align=center;verticalAlign=middle;whiteSpace=wrap;rounded=0;" vertex="1" parent="1">
          <mxGeometry x="740" y="365" width="60" height="30" as="geometry" />
        </mxCell>
        <mxCell id="caTv67Q1xba_H8R_C0RS-116" value="包含" style="text;html=1;strokeColor=none;fillColor=none;align=center;verticalAlign=middle;whiteSpace=wrap;rounded=0;" vertex="1" parent="1">
          <mxGeometry x="720" y="270" width="60" height="30" as="geometry" />
        </mxCell>
        <mxCell id="caTv67Q1xba_H8R_C0RS-117" value="包含" style="text;html=1;strokeColor=none;fillColor=none;align=center;verticalAlign=middle;whiteSpace=wrap;rounded=0;" vertex="1" parent="1">
          <mxGeometry x="750" y="320" width="60" height="30" as="geometry" />
        </mxCell>
        <mxCell id="caTv67Q1xba_H8R_C0RS-120" value="包含" style="text;html=1;strokeColor=none;fillColor=none;align=center;verticalAlign=middle;whiteSpace=wrap;rounded=0;" vertex="1" parent="1">
          <mxGeometry x="730" y="450" width="60" height="30" as="geometry" />
        </mxCell>
        <mxCell id="caTv67Q1xba_H8R_C0RS-121" value="包含" style="text;html=1;strokeColor=none;fillColor=none;align=center;verticalAlign=middle;whiteSpace=wrap;rounded=0;" vertex="1" parent="1">
          <mxGeometry x="880" y="577.5" width="60" height="30" as="geometry" />
        </mxCell>
        <mxCell id="caTv67Q1xba_H8R_C0RS-122" value="包含" style="text;html=1;strokeColor=none;fillColor=none;align=center;verticalAlign=middle;whiteSpace=wrap;rounded=0;" vertex="1" parent="1">
          <mxGeometry x="880" y="620" width="60" height="30" as="geometry" />
        </mxCell>
        <mxCell id="caTv67Q1xba_H8R_C0RS-123" value="包含" style="text;html=1;strokeColor=none;fillColor=none;align=center;verticalAlign=middle;whiteSpace=wrap;rounded=0;" vertex="1" parent="1">
          <mxGeometry x="880" y="657.5" width="60" height="30" as="geometry" />
        </mxCell>
        <mxCell id="caTv67Q1xba_H8R_C0RS-124" value="包含" style="text;html=1;strokeColor=none;fillColor=none;align=center;verticalAlign=middle;whiteSpace=wrap;rounded=0;" vertex="1" parent="1">
          <mxGeometry x="880" y="700" width="60" height="30" as="geometry" />
        </mxCell>
        <mxCell id="caTv67Q1xba_H8R_C0RS-125" value="包含" style="text;html=1;strokeColor=none;fillColor=none;align=center;verticalAlign=middle;whiteSpace=wrap;rounded=0;" vertex="1" parent="1">
          <mxGeometry x="670" y="540" width="60" height="30" as="geometry" />
        </mxCell>
        <mxCell id="caTv67Q1xba_H8R_C0RS-126" value="包含" style="text;html=1;strokeColor=none;fillColor=none;align=center;verticalAlign=middle;whiteSpace=wrap;rounded=0;" vertex="1" parent="1">
          <mxGeometry x="290" y="577.5" width="60" height="30" as="geometry" />
        </mxCell>
        <mxCell id="caTv67Q1xba_H8R_C0RS-127" value="包含" style="text;html=1;strokeColor=none;fillColor=none;align=center;verticalAlign=middle;whiteSpace=wrap;rounded=0;" vertex="1" parent="1">
          <mxGeometry x="300" y="770" width="60" height="30" as="geometry" />
        </mxCell>
        <mxCell id="caTv67Q1xba_H8R_C0RS-128" value="包含" style="text;html=1;strokeColor=none;fillColor=none;align=center;verticalAlign=middle;whiteSpace=wrap;rounded=0;" vertex="1" parent="1">
          <mxGeometry x="300" y="840" width="60" height="30" as="geometry" />
        </mxCell>
        <mxCell id="caTv67Q1xba_H8R_C0RS-129" value="包含" style="text;html=1;strokeColor=none;fillColor=none;align=center;verticalAlign=middle;whiteSpace=wrap;rounded=0;" vertex="1" parent="1">
          <mxGeometry x="290" y="660" width="60" height="30" as="geometry" />
        </mxCell>
        <mxCell id="caTv67Q1xba_H8R_C0RS-130" value="包含" style="text;html=1;strokeColor=none;fillColor=none;align=center;verticalAlign=middle;whiteSpace=wrap;rounded=0;" vertex="1" parent="1">
          <mxGeometry x="510" y="730" width="60" height="30" as="geometry" />
        </mxCell>
        <mxCell id="caTv67Q1xba_H8R_C0RS-131" value="包含" style="text;html=1;strokeColor=none;fillColor=none;align=center;verticalAlign=middle;whiteSpace=wrap;rounded=0;" vertex="1" parent="1">
          <mxGeometry x="510" y="775" width="60" height="30" as="geometry" />
        </mxCell>
        <mxCell id="caTv67Q1xba_H8R_C0RS-132" value="包含" style="text;html=1;strokeColor=none;fillColor=none;align=center;verticalAlign=middle;whiteSpace=wrap;rounded=0;" vertex="1" parent="1">
          <mxGeometry x="500" y="830" width="60" height="30" as="geometry" />
        </mxCell>
      </root>
    </mxGraphModel>
  </diagram>
</mxfile>
